<?xml version="1.0" encoding="UTF-8" standalone="no"?>
<svg
   xmlns:dc="http://purl.org/dc/elements/1.1/"
   xmlns:cc="http://creativecommons.org/ns#"
   xmlns:rdf="http://www.w3.org/1999/02/22-rdf-syntax-ns#"
   xmlns:svg="http://www.w3.org/2000/svg"
   xmlns="http://www.w3.org/2000/svg"
   xmlns:sodipodi="http://sodipodi.sourceforge.net/DTD/sodipodi-0.dtd"
   xmlns:inkscape="http://www.inkscape.org/namespaces/inkscape"
   width="1943.4691"
   height="1154.1681"
   viewBox="0 0 1943.4691 1154.1681"
   version="1.1"
   id="svg4"
   sodipodi:docname="audience.svg"
   inkscape:version="0.92.5 (2060ec1f9f, 2020-04-08)">
  <metadata
     id="metadata10">
    <rdf:RDF>
      <cc:Work
         rdf:about="">
        <dc:format>image/svg+xml</dc:format>
        <dc:type
           rdf:resource="http://purl.org/dc/dcmitype/StillImage" />
        <dc:title></dc:title>
      </cc:Work>
    </rdf:RDF>
  </metadata>
  <defs
     id="defs8" />
  <sodipodi:namedview
     pagecolor="#ffffff"
     bordercolor="#666666"
     borderopacity="1"
     objecttolerance="10"
     gridtolerance="10"
     guidetolerance="10"
     inkscape:pageopacity="0"
     inkscape:pageshadow="2"
     inkscape:window-width="1920"
     inkscape:window-height="1052"
     id="namedview6"
     showgrid="false"
     fit-margin-top="0"
     fit-margin-left="0"
     fit-margin-right="0"
     fit-margin-bottom="0"
     inkscape:zoom="0.11238095"
     inkscape:cx="989.86782"
     inkscape:cy="422.66217"
     inkscape:window-x="0"
     inkscape:window-y="0"
     inkscape:window-maximized="1"
     inkscape:current-layer="svg4" />
  <path
     inkscape:connector-curvature="0"
     id="path14"
     d="m 973.44551,1154.0871 c -507.22826,-0.2371 -558.08106,-0.4046 -559.67086,-1.8433 -1.0783,-0.9758 -3.0938,-1.4667 -5.2572,-1.2803 -2.2843,0.1968 -4.185,-0.3099 -5.4472,-1.4522 -1.7211,-1.5576 -1.9538,-3.2667 -2.0729,-15.2254 -0.1098,-11.0294 0.3262,-15.5992 2.4053,-25.2143 6.8888,-31.8567 10.3251,-61.0458 11.9777,-101.7435 1.1964,-29.4607 3.9532,-52.3343 8.075,-66.9984 4.6532,-16.5543 14.9022,-34.5756 32.4124,-56.9922 19.972,-25.568 33.2496,-35.2744 79,-57.752 17.875,-8.7822 36.55,-17.7975 41.5,-20.0342 16.1178,-7.2827 71.0147,-25.8911 159,-53.8962 29.1498,-9.2782 42.5922,-14.3572 59.658,-22.5407 l 15.658,-7.5084 12.842,8.8456 c 7.0632,4.8652 14.4171,10.5032 16.3421,12.529 4.4941,4.7294 23.9064,16.7893 33.3596,20.7247 9.0937,3.7857 32.4998,10.651 56.14026,16.4667 15.5582,3.8273 21.3914,4.7304 43,6.6567 16.4479,1.4662 27.73669,2.0055 32.99999,1.5766 7.8815,-0.6424 8.6443,-0.918 22,-7.9509 15.4555,-8.1386 50.2323,-24.7265 61.2605,-29.2202 25.2124,-10.2732 38.7187,-18.1422 45.3916,-26.4457 3.7261,-4.6366 5.7788,-4.8991 11.3479,-1.4508 12.0268,7.4467 75.1755,36.9626 85.5,39.963 13.3483,3.8791 24.1306,8.131 31.8655,12.5658 3.649,2.0922 21.0345,9.4837 38.6345,16.4256 17.6,6.9418 36.275,14.385 41.5,16.5403 20.6871,8.5335 46.1216,17.9439 57.9948,21.4572 20.7381,6.1364 42.2661,18.7644 60.5052,35.4915 5.5,5.0441 13.7558,12.5953 18.3463,16.7805 10.1276,9.2335 16.5436,17.5298 22.4776,29.065 5.5234,10.7367 17.2761,40.2739 18.1845,45.7015 0.3682,2.2 3.0893,13 6.0469,24 11.5282,42.8762 13.8605,56.4252 15.49,89.9823 1.1878,24.4601 0.6517,80.2798 -0.7835,81.589 -0.419,0.3823 -2.7868,0.8645 -5.2618,1.0717 -2.475,0.2072 -255.565,0.2594 -562.42219,0.116 z M 1568.6404,1026.101 c -4.6543,-0.4881 -4.757,-0.8257 -8.3002,-27.2729 -6.5048,-48.5533 -12.5243,-69.5782 -29.6085,-103.4172 -13.322,-26.3872 -25.487,-39.0207 -50.5915,-52.5399 -5.9249,-3.1907 -17.7475,-10.2854 -26.2725,-15.766 -32.0717,-20.6184 -76.5023,-43.1719 -113,-57.3602 -30.7208,-11.9425 -68.0695,-25.6813 -75,-27.5887 -7.189,-1.9787 -13.9736,-5.0957 -14.5905,-6.7032 -0.2701,-0.7039 -0.034,-2.4825 0.5249,-3.9524 0.7703,-2.026 1.6993,-2.6724 3.8408,-2.6724 1.5537,0 3.2632,-0.4384 3.7991,-0.9743 0.5358,-0.5358 14.6883,-7.9979 31.45,-16.5823 16.7616,-8.5844 37.9313,-19.6158 47.0436,-24.5143 9.1124,-4.8984 17.8874,-9.16213 19.5,-9.47483 2.5863,-0.5015 3.8166,0.2671 10.4321,6.51703 14.047,13.2708 30.4712,25.8389 42.7136,32.6853 3.5085,1.962 11.4207,5.3475 17.5828,7.5231 6.162,2.1757 14.3536,5.0653 18.2036,6.4213 11.916,4.1971 32.3499,7.4838 46.5893,7.4937 11.4207,0.01 14.0912,-0.3689 28.7717,-4.0598 18.8144,-4.7302 26.7753,-7.5661 37.139,-13.2301 13.317,-7.278 36.2682,-23.3952 45.1538,-31.7086 7.1733,-6.7114 9.2124,-8.09623 11.9214,-8.09623 3.7753,0 18.9265,6.66983 43.896,19.32363 32.8168,16.6306 72.5047,34.2349 89.5288,39.712 8.7306,2.8089 24.0709,9.5943 27,11.9428 0.55,0.441 6.0704,2.8708 12.2676,5.3996 10.4187,4.2513 42.3963,19.8134 55.2324,26.8791 17.8987,9.8526 30.9129,20.2225 42.0719,33.5236 17.8097,21.2284 22.7757,30.2291 32.9489,59.7193 14.5135,42.0714 17.2925,57.1356 22.5065,122 0.84,10.45 1.7479,19.7168 2.0175,20.5929 0.2696,0.8761 -0.4503,2.7886 -1.5999,4.25 l -2.0901,2.6571 -183.6774,-0.1681 c -101.0226,-0.092 -185.3547,-0.344 -187.4047,-0.559 z m -1199.77265,-1.2833 c -0.966,-0.631 -66.8195,-0.9679 -185,-0.9463 l -183.50000032,0.034 -0.3226,-11.2884 c -0.1775,-6.2086 0.1844,-19.8384 0.8042,-30.2884 1.08420002,-18.2783 2.24050002,-27.7952 7.47240002,-61.5 1.3234,-8.525 3.0926003,-20.225 3.9316003,-26 1.8588,-12.7932 6.8026,-30.5063 10.653202,-38.1693 4.4897,-8.9348 16.9063,-26.5784 27.9686,-39.7427 6.1418,-7.3088 21.1,-19.6753 35.3487,-29.2242 13.0535,-8.7479 20.366798,-12.6296 34.643898,-18.3876 5.225,-2.1072 10.175,-4.3892 11,-5.0709 0.825,-0.6818 5.775,-2.4578 11,-3.9467 5.225,-1.4888 14.9,-4.8449 21.5,-7.4578 16.2315,-6.4261 68.1374,-31.4228 72.5386,-34.933 1.9462,-1.5522 6.7316,-3.974 10.6343,-5.3818 3.9028,-1.4078 16.0354,-6.4622 26.9615,-11.232 10.9261,-4.7699 25.7156,-11.1234 32.8656,-14.1191 7.15,-2.9956 14.3115,-6.09883 15.9143,-6.89603 3.6115,-1.7963 8.5521,-0.4149 13.0857,3.65873 9.6451,8.6662 39.0555,24.5973 57,30.8759 29.467,10.3101 48.2714,14.3398 73,15.6436 10.762,0.5673 13.0895,0.3685 22.5604,-1.9273 24.4232,-5.9202 50.8903,-19.5782 75.8824,-39.1581 7.3935,-5.7925 14.1435,-10.52213 15,-10.51033 0.8565,0.012 4.7072,2.0676 8.5572,4.56843 3.85,2.5009 13.075,7.6188 20.5,11.3733 7.425,3.7544 22.8242,11.557 34.2203,17.3392 11.3961,5.7821 25.1211,11.9715 30.5,13.7541 5.3789,1.7827 10.8529,4.0742 12.1646,5.0924 1.3117,1.0182 3.2383,1.8512 4.2814,1.8512 2.3437,0 3.4529,2.549 1.9154,4.4016 -0.6282,0.7569 -3.1776,1.8887 -5.6654,2.5152 -2.4877,0.6264 -10.0116,3.315 -16.7197,5.9746 -6.7081,2.6596 -16.0216,6.077 -20.6966,7.5942 -4.675,1.5172 -12.775,4.4558 -18,6.5303 -15.7843,6.2668 -37.1926,13.8451 -55,19.4692 -37.9421,11.9835 -49.562,17.0877 -60.7848,26.7012 -2.1501,1.8418 -4.4144,2.8137 -6.5551,2.8137 -9.1122,0 -52.6453,36.2203 -69.1089,57.5 -7.6518,9.8895 -12.5512,17.8984 -12.5512,20.5164 0,1.0928 -2.7763,6.8065 -6.1695,12.697 -12.8226,22.2593 -20.9777,42.2734 -26.89,65.9928 -4.1828,16.7806 -5.2932,23.3444 -7.3129,43.2276 -1.1989,11.8035 -1.6368,13.6547 -3.6069,15.25 -2.4761,2.005 -11.3993,2.5175 -14.0207,0.8053 z M 972.86771,725.2432 c -10.5322,-1.672 -26.527,-6.7698 -38,-12.1111 -4.125,-1.9204 -12.553,-4.7849 -18.72896,-6.3656 -14.4856,-3.7074 -22.8842,-7.3345 -38.271,-16.5282 -22.9859,-13.73423 -37.1808,-24.61213 -55.3389,-42.40753 -9.2614,-9.0765 -19.2176,-19.4277 -22.1248,-23.0027 -12.5675,-15.4545 -22.4462,-33.1857 -27.0212,-48.5 -1.4788,-4.95 -4.8471,-15.975 -7.4851,-24.5 -5.5129,-17.8159 -6.527,-23.3304 -8.4362,-45.877 -1.4695,-17.3545 -1.7407,-18.0789 -6.7787,-18.1077 -5.8554,-0.033 -13.1586,-5.0278 -16.4004,-11.2156 -2.1099,-4.0274 -1.797,-13.1299 0.6138,-17.85554 l 2.0284,-3.9761 -4.5926,-11.734 c -2.5259,-6.4538 -7.6932,-19.4129 -11.4827,-28.7981 -10.0275,-24.8338 -16.9364,-50.5329 -15.559,-57.8749 0.8743,-4.6604 6.601,-11.0837 11.2494,-12.6178 5.7594,-1.9008 14.5157,-0.7783 19.1885,2.46 7.5478,5.2306 7.8637,1.1764 1.2304,-15.7895 -3.9446,-10.089 -7.6731,-26.2122 -10.6639,-46.1138 -0.8265,-5.5 -2.8654,-13.825 -4.5307,-18.5 -4.7561,-13.351 -5.8437,-18.0517 -6.8625,-29.6586 -0.5233,-5.9628 -1.3996,-13.7664 -1.9473,-17.3414 -0.5477,-3.575 -0.8765,-17.525 -0.7305,-31 0.2304,-21.2776 0.541,-25.4921 2.3609,-32.0433 3.4447,-12.3997 9.2993,-27.098 13.1274,-32.9567 6.0049,-9.1906 24.4242,-26.828496 37.1268,-35.551796 9.7851,-6.7198 13.0187,-8.3517 22,-11.1029 5.7909,-1.7739 15.2038,-4.8648 20.9175,-6.8688 6.3906,-2.2414 13.895,-4.042 19.5,-4.6788 12.5974,-1.4312 11.9025,-1.0234 11.1641,-6.5521 -0.72,-5.3899 0.6382,-13.7381 3.0681,-18.8588 2.6991,-5.6878 9.9228,-12.9444 15.0998,-15.1684 4.6287,-1.9884 21.0296,-5.4054 32.2794,-6.7253 3.025,-0.3548 14.95,-3.7304 26.5,-7.5011996 31.87416,-10.40620003 37.37606,-11.2343 56.13536,-8.4488 19.4212,2.8837 73.16809,23.1011996 90.50049,34.0426996 2.2068,1.3931 8.4947,3.4131 15.075,4.8428 34.483,7.4922 56.2971,15.22 76.231,27.0052 17.4177,10.2977 24.895,17.5837 43.1704,42.066196 3.2845,4.4 9.0187,11.9314 12.7428,16.7365 9.6042,12.3923 21.7421,37.7916 30.0538,62.8896 3.5288,10.6557 7.1304,22.8424 8.0036,27.0817 2.2954,11.1447 2.0588,32.172 -0.4646,41.2922 -2.8631,10.3481 -5.6102,21.581 -8.4161,34.4126 -2.9453,13.47 -6.2519,20.8838 -13.8649,31.0874 -10.6158,14.2282 -11.0424,17.0952 -2.265,15.2231 7.4476,-1.5884 13.0534,0.137 18.6596,5.7432 3.8572,3.8572 4.9475,5.7601 5.8834,10.2685 1.8656,8.9865 1.4885,24.3615 -0.7546,30.7652 -4.9956,14.262 -17.7312,37.8711 -27.3664,50.7314 -3.2012,4.2727 -5.8192,8.2186 -5.8179,8.7686 0,0.55 1.1255,3.2138 2.4982,5.9195 6.3502,12.51694 -0.7234,30.86944 -13.3571,34.65464 -4.6959,1.4069 -4.5879,1.2063 -6.1998,11.519 -1.4901,9.5333 -6.2323,29.4576 -9.1414,38.4069 -3.6818,11.3267 -15.498,37.7125 -20.875,46.6145 -5.32,8.8074 -12.4392,18.1145 -22.3155,29.1733 -3.0885,3.4583 -5.6154,6.7685 -5.6154,7.3559 0,0.5875 -3.0013,6.0494 -6.6695,12.1377 -10.1494,16.8451 -26.1673,32.5775 -42.0937,41.3435 -4.4418,2.4447 -10.8248,7.661 -18.7368,15.31193 -23.184,22.419 -39.3575,33.697 -54,37.655 -8.5328,2.3065 -31.42749,2.7398 -43.49999,0.8233 z M 433.86775,689.0111 c -12.9222,-4.349 -36.5402,-18.82803 -57.5,-35.25043 -3.3,-2.5856 -7.575,-5.3622 -9.5,-6.1703 -3.9044,-1.639 -24.6237,-22.5616 -36.6952,-37.0551 -10.9174,-13.108 -20.4626,-28.154 -32.803,-51.7072 -5.9074,-11.275 -11.8246,-21.949 -13.1492,-23.7199 -1.3247,-1.771 -4.2255,-8.521 -6.4462,-15 -2.2208,-6.4791 -6.5895,-16.2704 -9.7084,-21.7586 -5.5402,-9.749 -5.6841,-10.1976 -6.2531,-19.5 -0.6414,-10.4839 -0.664,-10.5579 -6.2425,-20.41674 -5.1894,-9.171 -11.0629,-24.2413 -13.2919,-34.1048 -2.6254,-11.6175 -2.5175,-26.6184 0.2346,-32.6085 2.2981,-5.0021 7.2435,-9.3972 11.6049,-10.3136 1.5125,-0.3179 3.9312,-0.8256 5.3749,-1.1283 3.009,-0.6309 3.0367,0.25 -0.6117,-19.4496 -3.9222,-21.1779 -5.038,-32.3197 -6.2211,-62.1191 -1.0514,-26.4827 -0.9978,-30.8882 0.5062,-41.6043 3.6422,-25.9509 13.1892,-48.117 28.4781,-66.1199 10.7742,-12.6869 31.2671,-26.1941 52.4147,-34.5474 3.0854,-1.2188 3.882,-2.1669 4.8544,-5.778 1.61,-5.9791 4.6295,-11.6241 7.7893,-14.562 8.7884,-8.1713 34.8173,-15.8505 61.6652,-18.1928 21.3262,-1.8606 22.8366,-1.9028 34.5,-0.9632 27.7959,2.2392 45.3779,6.0308 46.8875,10.1114 0.665,1.7978 3.8883,2.882 21.6968,7.2981 24.6713,6.1178 35.3392,9.9516 56.9157,20.4542 26.4941,12.8963 41.8643,24.2655 56.5313,41.816 13.882,16.6112 18.6466,28.6425 24.8327,62.707 2.1974,12.1 4.2862,24.925 4.6419,28.5 1.251,12.5759 -2.6174,37.0123 -11.5918,73.2238 -2.1872,8.8257 -3.6979,16.3234 -3.357,16.6615 0.3409,0.3381 3.6894,0.6147 7.4412,0.6147 5.9788,0 7.3547,0.3744 11.138,3.0309 15.526,10.9021 14.3479,30.466 -4.1834,69.4691 -4.3118,9.07504 -9.2502,21.00004 -10.9744,26.50004 -5.7891,18.467 -12.039,33.493 -20.7969,50 -1.1673,2.2 -8.1458,16.6469 -15.5078,32.1042 -14.6879,30.8387 -21.4244,42.9499 -30.9052,55.563 -6.7277,8.9503 -24.3977,27.1261 -31.9053,32.8184 -2.5284,1.9171 -5.2548,4.6171 -6.0586,6 -1.5195,2.6143 -34.1428,19.5025 -53.973,27.94053 -19.1139,8.1331 -38.737,10.9908 -49.8317,7.2569 z m 1056.99995,-5.183 c -0.825,-0.5332 -3.3299,-0.9763 -5.5663,-0.9847 -5.2081,-0.02 -12.7203,-1.36443 -28.9337,-5.17943 -28.9719,-6.8172 -51.0283,-21.7366 -75.7592,-51.245 -25.0629,-29.9047 -46.8763,-64.524 -59.2197,-93.9858 -2.4896,-5.9425 -7.0941,-14.9221 -10.2322,-19.9548 -8.8985,-14.2709 -13.0015,-22.8705 -13.7351,-28.7878 -1.4134,-11.4011 -2.9153,-16.4324 -7.6652,-25.67764 -8.8299,-17.1863 -12.8721,-32.9418 -12.8753,-50.1849 0,-18.7778 3.0533,-28.1966 10.5827,-32.6092 2.4222,-1.4194 4.404,-2.9557 4.404,-3.4138 0,-0.4582 -1.5651,-7.2779 -3.4779,-15.155 -5.6444,-23.2436 -6.68,-30.8126 -7.2529,-53.0116 -0.8846,-34.2774 1.3489,-49.9832 10.1296,-71.2309 5.0601,-12.2446 9.2436,-19.4942 17.935,-31.0795 13.5813,-18.1034 25.4923,-29.3939 38.9294,-36.9016 5.6399,-3.1511 17.9047,-7.6026 24.9716,-9.0635 1.9299,-0.399 2.928,-1.3702 3.3914,-3.3001 0.9058,-3.7725 6.5753,-11.3601 12.1882,-16.3118 9.5998,-8.4689 22.2401,-12.9606 43.6856,-15.5234 26.7323,-3.1946 56.0403,-1.837 86.5,4.0068 6.875,1.319 16.3393,3.1041 21.0317,3.9668 9.802,1.8022 29.918,8.0498 44.4683,13.8109 18.2038,7.2076 45.5932,22.3927 57.7123,31.9967 3.6918,2.9255 9.5347,7.1027 12.9842,9.2825 10.5724,6.6808 20.5504,17.1057 27.4717,28.7021 7.3056,12.2402 9.9691,19.9742 11.3081,32.8346 2.1779,20.9192 1.0246,42.6987 -3.9982,75.5 -3.4338,22.4244 -6.399,49.9609 -5.6032,52.0347 0.4014,1.0461 2.167,1.4653 6.1706,1.4653 4.8227,0 6.0046,0.3963 8.4371,2.8288 5.6834,5.6834 6.386,15.608 2.4808,35.0456 -3.1928,15.8919 -6.3326,26.3006 -12.7054,42.1186 -3.4326,8.52024 -5.2897,14.78044 -5.8399,19.68624 -1.366,12.181 -4.2469,20.0496 -10.9181,29.8208 -3.732,5.4662 -7.3695,12.9166 -9.5204,19.5 -4.6154,14.1262 -27.2963,57.4045 -39.9367,76.2047 -3.5136,5.226 -18.0677,22.3584 -23.6121,27.7953 -12.6736,12.4277 -28.0453,25.9138 -33.2904,29.2067 -6.9666,4.3737 -19.5472,10.7933 -21.1519,10.7933 -0.5873,0 -7.4959,2.9594 -15.3524,6.5764 -7.9612,3.6652 -18.5139,7.6493 -23.8386,9.00003 -10.5774,2.6832 -12.1119,2.836 -14.2975,1.4236 z"
     style="fill:#d93135" />
</svg>
