<?xml version="1.0" encoding="UTF-8" standalone="no"?>
<svg
   xmlns:dc="http://purl.org/dc/elements/1.1/"
   xmlns:cc="http://creativecommons.org/ns#"
   xmlns:rdf="http://www.w3.org/1999/02/22-rdf-syntax-ns#"
   xmlns:svg="http://www.w3.org/2000/svg"
   xmlns="http://www.w3.org/2000/svg"
   xmlns:sodipodi="http://sodipodi.sourceforge.net/DTD/sodipodi-0.dtd"
   xmlns:inkscape="http://www.inkscape.org/namespaces/inkscape"
   width="809.25287"
   height="876.26245"
   viewBox="0 0 809.25287 876.26245"
   version="1.1"
   id="svg4"
   sodipodi:docname="blub.svg"
   inkscape:version="0.92.5 (2060ec1f9f, 2020-04-08)">
  <metadata
     id="metadata10">
    <rdf:RDF>
      <cc:Work
         rdf:about="">
        <dc:format>image/svg+xml</dc:format>
        <dc:type
           rdf:resource="http://purl.org/dc/dcmitype/StillImage" />
        <dc:title />
      </cc:Work>
    </rdf:RDF>
  </metadata>
  <defs
     id="defs8" />
  <sodipodi:namedview
     pagecolor="#ffffff"
     bordercolor="#666666"
     borderopacity="1"
     objecttolerance="10"
     gridtolerance="10"
     guidetolerance="10"
     inkscape:pageopacity="0"
     inkscape:pageshadow="2"
     inkscape:window-width="1920"
     inkscape:window-height="1052"
     id="namedview6"
     showgrid="false"
     fit-margin-top="0"
     fit-margin-left="0"
     fit-margin-right="0"
     fit-margin-bottom="0"
     inkscape:zoom="0.10925926"
     inkscape:cx="-3042.9674"
     inkscape:cy="334.87693"
     inkscape:window-x="0"
     inkscape:window-y="1080"
     inkscape:window-maximized="1"
     inkscape:current-layer="svg4" />
  <path
     inkscape:connector-curvature="0"
     id="path14"
     d="m 385.04704,875.3065 c -22.7593,-1.8744 -43.2551,-9.0331 -58.3464,-20.3788 -8.6733,-6.5207 -9.2444,-7.5553 -9.2444,-16.7476 v -7.7776 h 85.5 c 85.2993,0 85.5,0 85.5,2.0333 0,1.1183 -1.1532,4.3089 -2.5626,7.0903 -9.8122,19.3635 -38.8576,33.2483 -75.0034,35.8543 -7.6637,0.5526 -14.384,0.9456 -14.934,0.8735 -0.55,-0.072 -5.4592,-0.4984 -10.9092,-0.9474 z m -67.5908,-73.904 v -11 h 85.5 85.5 v 11 11 h -85.5 -85.5 z m 0,-41 v -11 h 85.5 85.5 v 11 11 h -85.5 -85.5 z m 0,-38 v -11 h 85.5 85.5 v 11 11 h -85.5 -85.5 z m -187.5,-26.4173 c -8.685,-3.8766 -13.06782,-15.1347 -8.9592,-23.0135 3.3362,-6.3977 18.4123,-23.6454 54.7727,-62.6621 11.9975,-12.8739 23.2405,-24.1945 24.9844,-25.1571 7.9625,-4.3944 19.0115,-0.7887 23.3921,7.634 1.8911,3.6362 1.876,11.6209 -0.029,15.3048 -0.8,1.5468 -8.1385,9.96 -16.3078,18.6958 -29.2379,31.2651 -44.6942,48.2655 -52.5399,57.788 -5.8117,7.054 -9.0366,10.0998 -11.9115,11.25 -4.762,1.9054 -9.3684,1.9604 -13.4018,0.1601 z m 536,-1.9247 c -1.65,-0.7561 -9.5768,-8.3377 -17.6152,-16.848 -8.0384,-8.5104 -19.789,-20.4757 -26.1126,-26.5895 -18.6695,-18.0501 -34.4338,-34.6654 -36.2831,-38.2415 -0.9491,-1.8354 -1.7583,-5.5054 -1.7983,-8.1558 -0.1893,-12.5451 14.7897,-21.1106 25.4758,-14.5681 2.0167,1.2347 6.9667,5.9481 11,10.4742 4.0334,4.5261 13.2563,13.8329 20.4953,20.6816 17.3504,16.4151 43.2091,43.6925 46.2804,48.8195 6.5636,10.9568 -0.5543,24.6187 -13.2644,25.4597 -3.0007,0.1984 -6.4393,-0.2355 -8.1779,-1.0321 z m -330.1479,-2.6659 c -11.3475,-1.2217 -20.3099,-4.8201 -29.9644,-12.0306 -11.862,-8.8595 -19.5796,-25.7093 -30.4409,-66.4615 -6.0349,-22.6432 -7.3279,-25.9586 -15.4046,-39.5 -9.2003,-15.425 -26.2246,-40.1224 -32.5459,-47.2147 -14.2141,-15.9479 -36.8363,-64.3387 -43.1424,-92.28536 -0.9583,-4.2467 -1.3396,-13.5971 -1.3049,-32 0.045,-24.0524 0.2417,-26.8988 2.623,-38 1.4158,-6.5999 4.2492,-16.0499 6.2966,-21 2.0473,-4.9499 5.201,-13.0499 7.0083,-18 9.5568,-26.1763 22.6541,-49.181 36.1381,-63.4747 8.0857,-8.5713 38.3353,-33.3675 51.4593,-42.1823 26.4795,-17.7851 42.6205,-23.3712 84.9257,-29.3914 16.5078,-2.3492 20.7076,-2.5845 39,-2.1847 23.7951,0.52 36.1637,2.5908 61.3605,10.2735 23.6103,7.1989 41.7283,16.0014 60.119,29.2084 9.9833,7.1693 33.6938,30.4523 41.8579,41.1032 12.2675,16.0042 25.6764,40.1509 33.2618,59.8981 1.3204,3.4375 3.4934,9.1061 4.8287,12.5969 1.3354,3.4908 3.139,9.6783 4.008,13.75 0.869,4.0717 2.4845,10.5531 3.5898,14.4031 2.8101,9.7872 4.3885,36.5454 2.9896,50.6798 -1.0549,10.6595 -5.0293,26.5239 -9.7252,38.8202 -1.3652,3.57496 -3.4151,8.97496 -4.5553,11.99996 -2.045,5.4255 -9.1451,19.8451 -16.4953,33.5001 -2.0724,3.85 -7.1366,11.8329 -11.2537,17.7399 -4.1172,5.9069 -10.5556,15.1319 -14.3077,20.5 -14.1613,20.2608 -17.6783,26.1909 -22.7175,38.3045 -2.8498,6.8506 -6.2719,15.0716 -7.6048,18.2688 -1.3328,3.1973 -3.3376,9.7223 -4.455,14.5 -1.1174,4.7778 -3.1421,13.4118 -4.4993,19.1868 -5.7649,24.5294 -9.4651,31.4498 -23.9471,44.7887 -8.8107,8.1154 -15.2588,11.7284 -23.4544,13.1422 -6.8298,1.1783 -133.8449,2.1165 -143.6479,1.0611 z m 128.3552,-39.3265 c 16.7152,-1.8444 16.9492,-2.1577 26.7789,-35.8535 5.9868,-20.5228 13.6121,-42.5985 20.3146,-58.812 3.0822,-7.4562 12.2127,-21.5202 20.1255,-31 16.2085,-19.4186 40.4557,-62.9545 45.9482,-82.50006 6.5308,-23.2405 7.6362,-39.8079 4.1703,-62.5 -1.4976,-9.8056 -3.4069,-16.7033 -8.8575,-32 -8.4972,-23.8467 -10.0008,-27.3179 -16.2406,-37.4931 -9.5981,-15.6512 -28.0214,-36.0963 -41.4467,-45.9952 -9.4606,-6.9756 -35.6635,-22.5301 -48.2657,-28.6514 -8.259,-4.0117 -13.0483,-5.5598 -24.5,-7.9193 -13.4279,-2.7667 -15.594,-2.9329 -38.2343,-2.9337 -39.2502,-0.001 -50.3288,2.8852 -91,23.7112 -7.9437,4.0676 -27.1128,18.9739 -37.0124,28.7815 -15.7392,15.5929 -28.9601,34.6692 -34.9444,50.4207 -14.6449,38.5479 -16.5119,46.6449 -16.5301,71.6901 -0.014,19.7891 1.7873,32.0909 6.7204,45.8892 2.6718,7.4731 10.9253,24.48816 16.2217,33.44176 1.7704,2.9929 5.483,9.9679 8.2502,15.5 5.6482,11.2916 9.5398,16.9671 18.3514,26.7634 4.4108,4.9037 8.5765,11.4908 15.3281,24.2381 12.3372,23.2929 12.8181,24.3295 17.1932,37.0568 2.0797,6.05 4.9454,13.7869 6.3684,17.1932 1.4229,3.4063 4.1987,12.1813 6.1684,19.5 6.3386,23.5519 7.6033,27.1785 10.4814,30.0568 l 2.7499,2.75 60.3269,-0.049 c 40.8901,-0.033 63.9378,-0.4473 71.5342,-1.2856 z M 263.71264,425.28544 c -5.2472,-1.5154 -9.6724,-6.7737 -11.7785,-13.9961 -2.772,-9.5058 -2.5688,-31.8197 0.4175,-45.8435 3.9077,-18.3508 14.3632,-43.1792 24.8076,-58.9102 7.237,-10.9001 24.5194,-28.286 38.297,-38.5263 24.365,-18.1096 55.8361,-28.7376 85.5,-28.8741 15.2823,-0.07 19.0478,0.9174 23.8775,6.2634 5.6302,6.2319 6.0234,13.7775 1.105,21.2096 -4.1459,6.265 -7.0325,7.1867 -22.9825,7.3388 -15.5103,0.1478 -26.566,2.2274 -40.8654,7.6869 -28.7457,10.9749 -54.3212,35.3852 -66.4259,63.3997 -9.4168,21.7937 -12.6246,39.5136 -10.2069,56.3816 1.1487,8.0141 1.1035,9.4229 -0.4311,13.4413 -2.0013,5.2403 -6.1174,9.0483 -11.3517,10.502 -4.3321,1.203 -5.575,1.194 -9.9626,-0.073 z m -249.256321,8.1873 c -7.0174002,-1.4032 -12.1527002,-6.2099 -14.01220019,-13.1157 -1.97450001,-7.3327 2.87679999,-17.1508 9.75760019,-19.7476 5.8403,-2.2041 111.728921,-5.113 116.769521,-3.2079 6.7828,2.5636 11.485,9.3196 11.485,16.5009 0,7.4907 -5.1458,14.5344 -12.0687,16.5198 -1.8799,0.5391 -14.44602,0.99 -27.924621,1.0018 -13.4786,0.012 -35.7566,0.6794 -49.5066,1.4835 -27.0589,1.5824 -29.2344,1.618 -34.5,0.5652 z m 725.499921,-0.133 c -6.05,-0.3831 -22.925,-1.0315 -37.5,-1.441 -24.3029,-0.6827 -26.819,-0.9198 -30.3481,-2.8596 -11.4827,-6.3116 -11.2798,-22.9812 0.3593,-29.5228 5.899,-3.3153 18.4188,-3.7076 54.8136,-1.7174 16.1286,0.882 38.3641,1.6035 49.4121,1.6035 19.5918,0 20.192,0.061 24.3292,2.486 7.5901,4.4481 10.3325,13.7368 6.5285,22.1129 -2.1383,4.7084 -5.8712,7.6969 -11.5946,9.2821 -4.3414,1.2024 -37.3736,1.2356 -56,0.056 z m -538.8936,-214.4586 c -1.5914,-0.8299 -7.2319,-5.6647 -12.5344,-10.7438 -5.3024,-5.0792 -15.2503,-14.1533 -22.1064,-20.1648 -22.065,-19.3468 -41.9612,-37.9078 -45.4902,-42.4375 -5.58972,-7.1747 -5.91822,-15.2409 -0.8892,-21.8344 2.7153,-3.56 9.2527,-7.2406 12.9138,-7.2706 5.4301,-0.045 9.3915,2.2734 18.0221,10.5453 4.9379,4.7325 18.8667,17.4522 30.953,28.2659 31.9719,28.6056 41.2131,37.6866 42.5867,41.8484 2.7853,8.4395 -0.9807,18.1484 -8.4065,21.6721 -4.3167,2.0484 -11.2446,2.1034 -15.0489,0.1194 z m 396.4301,-1.6426 c -10.3923,-3.0122 -15.8271,-14.1531 -11.4272,-23.4251 0.8851,-1.8652 5.4745,-8.0082 10.1987,-13.6511 11.3694,-13.5803 57.4232,-60.7836 61.4754,-63.0099 7.4809,-4.1099 18.758,-0.5094 22.7183,7.2534 2.5482,4.9948 2.6172,12.4745 0.1523,16.4966 -1.0111,1.6501 -12.8219,14.25 -26.2462,28 -13.4243,13.75 -28.4827,29.7251 -33.4631,35.5 -4.9804,5.7751 -10.1554,11.0164 -11.5,11.6475 -3.923,1.8413 -8.1879,2.267 -11.9082,1.1886 z m -198.5365,-79.4977 c -9.0252,-4.7579 -10.1852,-8.328 -10.9951,-33.8384 -0.3492,-11.000004 -1.0556,-26.524904 -1.5699,-34.500004 -1.8307,-28.3907 -2.2735,-53.4442 -1.0121,-57.2662 1.5077,-4.5683999 7.8211,-10.3183999 12.802,-11.65969992 7.4408,-2.00359998 15.8017,2.47290002 19.3954,10.38459992 1.5257,3.3587 1.8395,6.6725 1.8577,19.6177 0.012,8.567 0.47,20.2669 1.0176,26 0.5476,5.733 1.4324,23.4119 1.9663,39.2865 1.0318,30.681204 0.818,32.847504 -3.75,37.991804 -4.4421,5.0024 -14.0835,6.951 -19.7119,3.9837 z"
     style="fill:#3ab952" />
</svg>
