<svg width="77" height="19" viewBox="0 0 77 19" fill="none" xmlns="http://www.w3.org/2000/svg">
<path d="M48.4951 8.78418H53.5928V15.4463C52.7666 15.7158 51.9873 15.9033 51.2549 16.0088C50.5283 16.1201 49.7842 16.1758 49.0225 16.1758C47.083 16.1758 45.6006 15.6074 44.5752 14.4707C43.5557 13.3281 43.0459 11.6904 43.0459 9.55762C43.0459 7.4834 43.6377 5.86621 44.8213 4.70605C46.0107 3.5459 47.6572 2.96582 49.7607 2.96582C51.0791 2.96582 52.3506 3.22949 53.5752 3.75684L52.6699 5.93652C51.7324 5.46777 50.7568 5.2334 49.7432 5.2334C48.5654 5.2334 47.6221 5.62891 46.9131 6.41992C46.2041 7.21094 45.8496 8.27441 45.8496 9.61035C45.8496 11.0049 46.1338 12.0713 46.7021 12.8096C47.2764 13.542 48.1084 13.9082 49.1982 13.9082C49.7666 13.9082 50.3438 13.8496 50.9297 13.7324V11.0518H48.4951V8.78418ZM59.3408 16H56.6602V3.15039H64.0254V5.38281H59.3408V8.69629H63.7002V10.9199H59.3408V16ZM71.417 8.78418H76.5146V15.4463C75.6885 15.7158 74.9092 15.9033 74.1768 16.0088C73.4502 16.1201 72.7061 16.1758 71.9443 16.1758C70.0049 16.1758 68.5225 15.6074 67.4971 14.4707C66.4775 13.3281 65.9678 11.6904 65.9678 9.55762C65.9678 7.4834 66.5596 5.86621 67.7432 4.70605C68.9326 3.5459 70.5791 2.96582 72.6826 2.96582C74.001 2.96582 75.2725 3.22949 76.4971 3.75684L75.5918 5.93652C74.6543 5.46777 73.6787 5.2334 72.665 5.2334C71.4873 5.2334 70.5439 5.62891 69.835 6.41992C69.126 7.21094 68.7715 8.27441 68.7715 9.61035C68.7715 11.0049 69.0557 12.0713 69.624 12.8096C70.1982 13.542 71.0303 13.9082 72.1201 13.9082C72.6885 13.9082 73.2656 13.8496 73.8516 13.7324V11.0518H71.417V8.78418Z" fill="black"/>
<path d="M8.73354 0.000210707C7.70525 0.000210707 6.81108 0.123247 6.0495 0.370856C5.28637 0.618465 4.61575 0.918365 4.033 1.26748L3.50575 0.397001H2.479L2.36337 6.7518H3.41633C3.59523 6.05104 3.81819 5.36221 4.08387 4.68941C4.34904 4.00502 4.69129 3.39446 5.11062 2.85618C5.52507 2.32244 6.05117 1.88525 6.65229 1.57507C7.252 1.2521 7.97042 1.08908 8.81063 1.08908C9.72637 1.08908 10.5435 1.27671 11.2619 1.65196C11.9818 2.02107 12.6078 2.57012 13.1381 3.30526C13.6607 4.01425 14.0631 4.89857 14.3452 5.95668C14.6289 7.01786 14.7692 8.199 14.7692 9.50626C14.7692 9.80154 14.7599 10.0907 14.743 10.3783H0V11.3133C0.205042 11.338 0.484083 11.381 0.834042 11.441C1.17629 11.4917 1.45533 11.5686 1.66962 11.6717C1.91216 11.7856 2.10732 11.9803 2.22154 12.2223C2.32483 12.453 2.37571 12.7267 2.37571 13.0435V14.4523C2.37571 15.4766 2.37108 16.1686 2.36337 16.5285C2.35025 16.823 2.33329 17.1173 2.3125 17.4113C3.40748 17.909 4.54655 18.3039 5.71496 18.5909C6.80366 18.8589 7.92053 18.9962 9.04187 19C10.2058 19 11.3282 18.7832 12.4073 18.3464C13.4651 17.9242 14.426 17.2921 15.2317 16.4885C16.0691 15.6408 16.7284 14.6348 17.1711 13.5295C17.4613 12.8181 17.6627 12.0738 17.7708 11.3133H19.2292C19.3448 12.0992 19.5437 12.839 19.8289 13.528C20.3068 14.6907 20.9543 15.678 21.7683 16.4885C22.5745 17.2923 23.5359 17.9243 24.5942 18.3464C25.6734 18.7832 26.7942 19 27.9581 19C29.045 19 30.155 18.8631 31.285 18.5909C32.454 18.304 33.5936 17.9091 34.689 17.4113C34.6705 17.1806 34.6536 16.8869 34.6366 16.527C34.6255 15.835 34.6214 15.1429 34.6243 14.4508V13.0435C34.6243 12.7267 34.6752 12.453 34.7785 12.2223C34.8927 11.9803 35.0878 11.7856 35.3304 11.6717C35.5462 11.5686 35.8237 11.4917 36.166 11.441C36.5175 11.381 36.795 11.338 37 11.3133V10.3783H22.257C22.2392 10.0879 22.2305 9.79713 22.2308 9.50626C22.2308 8.199 22.3727 7.01632 22.6548 5.95668C22.9369 4.89857 23.3393 4.01425 23.8619 3.30526C24.3922 2.57012 25.0182 2.01953 25.7366 1.65196C26.4565 1.27671 27.2736 1.08908 28.1909 1.08908C29.0296 1.08908 29.748 1.25056 30.3477 1.57507C30.9488 1.88525 31.4749 2.32244 31.8894 2.85618C32.3087 3.39446 32.651 4.00502 32.9161 4.68941C33.1813 5.36457 33.4048 6.05203 33.5837 6.7518H34.6382L34.5225 0.397001H33.4942L32.967 1.26748C32.3316 0.893425 31.6556 0.592622 30.952 0.370856C30.1889 0.124785 29.2947 0.000210707 28.2665 0.000210707C27.0231 -0.0082062 25.791 0.235626 24.6451 0.716894C23.5489 1.169 22.56 1.84538 21.7421 2.70238C20.8917 3.59174 20.2282 4.64171 19.7904 5.79058C19.3273 7.01925 19.0962 8.32285 19.109 9.63544C19.109 9.88767 19.1197 10.1337 19.1352 10.3783H17.8664C17.8818 10.1337 17.891 9.88613 17.891 9.63391C17.891 8.24975 17.6644 6.97018 17.2112 5.79058C16.7729 4.64159 16.1088 3.5916 15.2579 2.70238C14.4403 1.84612 13.4519 1.17027 12.3565 0.718432C11.2101 0.236556 9.97749 -0.00779969 8.73354 0.000210707V0.000210707ZM7.98892 11.3133H14.6489C14.5831 11.8059 14.4863 12.2939 14.3591 12.7744C14.1099 13.7185 13.6966 14.6118 13.1381 15.4135C12.6243 16.1582 11.9426 16.7724 11.1478 17.2068C10.3507 17.642 9.44733 17.8604 8.43754 17.8604C7.73722 17.8695 7.04102 17.7523 6.3825 17.5143C5.75812 17.2837 5.31721 17.0407 5.05975 16.7838C4.99152 16.3385 4.9575 15.8886 4.958 15.4381C4.94996 15.0537 4.94585 14.6692 4.94567 14.2847V13.285C4.94567 12.9282 4.99654 12.6114 5.09983 12.3376C5.14787 12.1967 5.22695 12.0683 5.33126 11.9618C5.43558 11.8553 5.56247 11.7736 5.70262 11.7224C5.98475 11.5948 6.37017 11.501 6.85887 11.441C7.23383 11.3844 7.61077 11.3418 7.98892 11.3133V11.3133ZM22.3511 11.3133H29.0111C29.2855 11.3287 29.6617 11.3733 30.1411 11.441C30.6298 11.501 31.0153 11.5948 31.2974 11.7224C31.6057 11.8516 31.8061 12.0562 31.9017 12.3376C32.0035 12.6114 32.0559 12.9282 32.0559 13.2865V14.2862C32.0559 14.6015 32.0497 14.986 32.042 15.4397C32.042 15.8918 32.0081 16.3394 31.9402 16.7838C31.6828 17.0407 31.2419 17.2837 30.6175 17.5143C30.0008 17.745 29.3148 17.8604 28.5625 17.8604C27.5511 17.8604 26.6477 17.642 25.8522 17.2068C25.0574 16.7724 24.3757 16.1582 23.8619 15.4135C23.3032 14.6113 22.89 13.7175 22.6409 12.7729C22.5137 12.2924 22.4169 11.8044 22.3511 11.3118V11.3133Z" fill="#28C800"/>
</svg>
