<svg width="109" height="36" viewBox="0 0 109 36" fill="none" xmlns="http://www.w3.org/2000/svg">
<path d="M44.251 24L40.5244 13.2686H40.4541C40.5537 14.8623 40.6035 16.3564 40.6035 17.751V24H38.6963V11.1504H41.6582L45.2266 21.3721H45.2793L48.9531 11.1504H51.9238V24H49.9023V17.6455C49.9023 17.0068 49.917 16.1748 49.9463 15.1494C49.9814 14.124 50.0107 13.5029 50.0342 13.2861H49.9639L46.1055 24H44.251ZM59.333 24.1758C57.8213 24.1758 56.6377 23.7363 55.7822 22.8574C54.9326 21.9727 54.5078 20.7568 54.5078 19.21C54.5078 17.6221 54.9033 16.374 55.6943 15.4658C56.4854 14.5576 57.5723 14.1035 58.9551 14.1035C60.2383 14.1035 61.252 14.4932 61.9961 15.2725C62.7402 16.0518 63.1123 17.124 63.1123 18.4893V19.6055H56.6348C56.6641 20.5488 56.9189 21.2754 57.3994 21.7852C57.8799 22.2891 58.5566 22.541 59.4297 22.541C60.0039 22.541 60.5371 22.4883 61.0293 22.3828C61.5273 22.2715 62.0605 22.0898 62.6289 21.8379V23.5166C62.125 23.7568 61.6152 23.9268 61.0996 24.0264C60.584 24.126 59.9951 24.1758 59.333 24.1758ZM58.9551 15.668C58.2988 15.668 57.7715 15.876 57.373 16.292C56.9805 16.708 56.7461 17.3145 56.6699 18.1113H61.082C61.0703 17.3086 60.877 16.7021 60.502 16.292C60.127 15.876 59.6113 15.668 58.9551 15.668ZM68.7373 24.1758C67.5244 24.1758 66.5781 23.7363 65.8984 22.8574C65.2188 21.9785 64.8789 20.7451 64.8789 19.1572C64.8789 17.5635 65.2217 16.3242 65.9072 15.4395C66.5986 14.5488 67.5537 14.1035 68.7725 14.1035C70.0498 14.1035 71.0225 14.5752 71.6904 15.5186H71.7959C71.6963 14.8213 71.6465 14.2705 71.6465 13.8662V10.3242H73.7207V24H72.1035L71.7432 22.7256H71.6465C70.9844 23.6924 70.0146 24.1758 68.7373 24.1758ZM69.291 22.5059C70.1406 22.5059 70.7588 22.2686 71.1455 21.7939C71.5322 21.3135 71.7314 20.5371 71.7432 19.4648V19.1748C71.7432 17.9502 71.5439 17.0801 71.1455 16.5645C70.7471 16.0488 70.123 15.791 69.2734 15.791C68.5469 15.791 67.9873 16.0869 67.5947 16.6787C67.2021 17.2646 67.0059 18.1025 67.0059 19.1924C67.0059 20.2705 67.1963 21.0938 67.5771 21.6621C67.958 22.2246 68.5293 22.5059 69.291 22.5059ZM78.7393 24H76.6738V14.2793H78.7393V24ZM76.5508 11.7041C76.5508 11.335 76.6504 11.0508 76.8496 10.8516C77.0547 10.6523 77.3447 10.5527 77.7197 10.5527C78.083 10.5527 78.3643 10.6523 78.5635 10.8516C78.7686 11.0508 78.8711 11.335 78.8711 11.7041C78.8711 12.0557 78.7686 12.334 78.5635 12.5391C78.3643 12.7383 78.083 12.8379 77.7197 12.8379C77.3447 12.8379 77.0547 12.7383 76.8496 12.5391C76.6504 12.334 76.5508 12.0557 76.5508 11.7041ZM88.5566 24L88.2666 22.7256H88.1611C87.874 23.1768 87.4639 23.5312 86.9307 23.7891C86.4033 24.0469 85.7998 24.1758 85.1201 24.1758C83.9424 24.1758 83.0635 23.8828 82.4834 23.2969C81.9033 22.7109 81.6133 21.8232 81.6133 20.6338V14.2793H83.6963V20.2734C83.6963 21.0176 83.8486 21.5771 84.1533 21.9521C84.458 22.3213 84.9355 22.5059 85.5859 22.5059C86.4531 22.5059 87.0889 22.248 87.4932 21.7324C87.9033 21.2109 88.1084 20.3408 88.1084 19.1221V14.2793H90.1826V24H88.5566ZM101.318 24H99.2441V18.0059C99.2441 17.2617 99.1035 16.708 98.8223 16.3447C98.541 15.9756 98.1016 15.791 97.5039 15.791C96.707 15.791 96.1211 16.0518 95.7461 16.5732C95.377 17.0889 95.1924 17.9502 95.1924 19.1572V24H93.127V14.2793H94.7441L95.0342 15.5537H95.1396C95.4092 15.0908 95.7988 14.7334 96.3086 14.4814C96.8242 14.2295 97.3896 14.1035 98.0049 14.1035C99.499 14.1035 100.489 14.6133 100.976 15.6328H101.116C101.403 15.1523 101.808 14.7773 102.329 14.5078C102.851 14.2383 103.448 14.1035 104.122 14.1035C105.282 14.1035 106.126 14.3965 106.653 14.9824C107.187 15.5684 107.453 16.4619 107.453 17.6631V24H105.388V18.0059C105.388 17.2617 105.244 16.708 104.957 16.3447C104.676 15.9756 104.236 15.791 103.639 15.791C102.836 15.791 102.247 16.043 101.872 16.5469C101.503 17.0449 101.318 17.8125 101.318 18.8496V24Z" fill="black"/>
<path d="M18 2.25C9.30234 2.25 2.25 9.30234 2.25 18C2.25 26.6977 9.30234 33.75 18 33.75C26.6977 33.75 33.75 26.6977 33.75 18C33.75 9.30234 26.6977 2.25 18 2.25ZM27 11.1691L25.5656 12.5437C25.4391 12.6387 25.3793 12.7934 25.4039 12.9445V23.059C25.3793 23.2137 25.4391 23.3684 25.5656 23.4598L26.9719 24.8344V25.1402H19.9125V24.8484L21.3645 23.4387C21.5086 23.2945 21.5086 23.2523 21.5086 23.0379V14.8535L17.4656 25.1051H16.9207L12.2168 14.8535V21.7266C12.1746 22.0148 12.2766 22.3066 12.4805 22.5141L14.3719 24.8027V25.1086H9V24.8027L10.8914 22.5141C10.9911 22.4111 11.0652 22.2863 11.108 22.1495C11.1507 22.0128 11.1608 21.8679 11.1375 21.7266V13.7812C11.1621 13.5598 11.0777 13.3453 10.909 13.1941L9.22852 11.1691V10.8633H14.4492L18.4781 19.7051L22.0254 10.8703H27V11.1691Z" fill="black"/>
</svg>
