<svg width="93" height="97" viewBox="0 0 93 97" fill="none" xmlns="http://www.w3.org/2000/svg">
<path d="M73.7042 13H18.7206C16.0367 13.008 13.4649 14.1283 11.5671 16.1162C9.66924 18.1042 8.59968 20.7981 8.59204 23.6094V59.9844C8.59968 62.7957 9.66924 65.4896 11.5671 67.4775C13.4649 69.4654 16.0367 70.5858 18.7206 70.5938H25.9553V85.75L42.9062 70.9461C43.1665 70.7184 43.4949 70.5937 43.834 70.5938H73.7042C76.3882 70.5858 78.96 69.4654 80.8578 67.4775C82.7556 65.4896 83.8252 62.7957 83.8328 59.9844V23.6094C83.8252 20.7981 82.7556 18.1042 80.8578 16.1162C78.96 14.1283 76.3882 13.008 73.7042 13Z" fill="#0097D9"/>
</svg>
