<?xml version="1.0" encoding="UTF-8" standalone="no"?>
<svg
   xmlns:dc="http://purl.org/dc/elements/1.1/"
   xmlns:cc="http://creativecommons.org/ns#"
   xmlns:rdf="http://www.w3.org/1999/02/22-rdf-syntax-ns#"
   xmlns:svg="http://www.w3.org/2000/svg"
   xmlns="http://www.w3.org/2000/svg"
   xmlns:sodipodi="http://sodipodi.sourceforge.net/DTD/sodipodi-0.dtd"
   xmlns:inkscape="http://www.inkscape.org/namespaces/inkscape"
   width="1218.4738"
   height="1219.0103"
   viewBox="0 0 1218.4737 1219.0103"
   version="1.1"
   id="svg4"
   sodipodi:docname="rocket.svg"
   inkscape:version="0.92.5 (2060ec1f9f, 2020-04-08)">
  <metadata
     id="metadata10">
    <rdf:RDF>
      <cc:Work
         rdf:about="">
        <dc:format>image/svg+xml</dc:format>
        <dc:type
           rdf:resource="http://purl.org/dc/dcmitype/StillImage" />
        <dc:title></dc:title>
      </cc:Work>
    </rdf:RDF>
  </metadata>
  <defs
     id="defs8" />
  <sodipodi:namedview
     pagecolor="#ffffff"
     bordercolor="#666666"
     borderopacity="1"
     objecttolerance="10"
     gridtolerance="10"
     guidetolerance="10"
     inkscape:pageopacity="0"
     inkscape:pageshadow="2"
     inkscape:window-width="1920"
     inkscape:window-height="1052"
     id="namedview6"
     showgrid="false"
     fit-margin-top="0"
     fit-margin-left="0"
     fit-margin-right="0"
     fit-margin-bottom="0"
     inkscape:zoom="0.15451593"
     inkscape:cx="572.01634"
     inkscape:cy="800.93899"
     inkscape:window-x="0"
     inkscape:window-y="0"
     inkscape:window-maximized="1"
     inkscape:current-layer="svg4" />
  <path
     inkscape:connector-curvature="0"
     id="path61"
     d="m 0,1217.3799 c 0,-0.9661 0.4603,-3.3286 1.0228,-5.25 3.1647,-10.8091 6.6858,-32.287 8.4418,-51.4934 0.8548,-9.35 2.0363,-22.1002 2.6256,-28.3337 0.6719,-7.1085 0.838,-23.1391 0.4456,-43 -0.6486,-32.823 0.6023,-81.4797 2.4077,-93.65318 1.3956,-9.4107 4.2928,-18.0441 9.7038,-28.9165 8.7942,-17.6704 19.3634,-29.9731 37.44,-43.5808 24.4282,-18.389 44.7304,-27.7725 69.4127,-32.082 21.9772,-3.8371 39.2751,-1.9489 74.5,8.1321 8.623,2.4678 27.1126,8.9828 28.3035,9.973 0.4419,0.3674 -6.3081,0.981 -15,1.3634 -21.7265,0.956 -33.3854,2.8569 -46.0934,7.5153 -8.7719,3.2155 -14.304,7.0187 -22.8232,15.6901 -15.5867,15.8653 -29.3367,40.6119 -41.0568,73.89228 -4.7757,13.5612 -5.8791,17.6464 -9.341,34.5844 -2.724,13.3272 -3.9142,22.5118 -7.0518,54.4156 -0.595,6.05 -1.4688,14.349 -1.9418,18.4422 -0.5189,4.4902 -0.4892,8.1352 0.075,9.1891 1.3931,2.6032 8.2479,3.2427 26.3721,2.4604 19.0786,-0.8236 28.0726,-1.9402 44.0576,-5.4698 2.2,-0.4857 8.5,-1.8727 14,-3.0821 48.474,-10.6593 78.9418,-26.1405 108.5386,-55.1506 14.5001,-14.2127 24.1528,-29.1472 30.0554,-46.5013 4.3717,-12.8533 4.7051,-20.47398 1.4775,-33.76948 -1.4529,-5.9849 -2.4311,-11.0921 -2.1738,-11.3494 0.8077,-0.8077 5.2168,8.9086 7.5922,16.731 6.1033,20.09798 7.1128,27.88478 7.3248,56.49998 0.1297,17.5049 -0.2233,27.2485 -1.1776,32.5 -2.6634,14.6572 -8.3485,36.6081 -11.3588,43.8585 -13.1044,31.5615 -50.6124,61.8188 -95.3791,76.9412 -24.3302,8.2189 -43.5987,11.0656 -75.8992,11.213 -50.5114,0.2307 -124.0254,4.57 -135.546,8.001 -8.1593,2.4299 -8.954,2.4503 -8.954,0.2297 z m 684.5891,-15.4934 c -0.2934,-2.3375 -0.7279,-17.525 -0.9655,-33.75 -0.2376,-16.225 -0.9482,-32.425 -1.5791,-36 -7.6158,-43.1556 -20.5084,-88.142 -35.8235,-125.0002 -8.2277,-19.80118 -15.2339,-31.54928 -25.3789,-42.55518 -4.4395,-4.8163 -4.3234,-6.4267 0.4669,-6.4802 5.0008,-0.056 24.1755,-5.1745 36.191,-9.6611 14.2339,-5.315 37.6172,-15.818 59.5,-26.7253 21.8313,-10.8817 55.9246,-29.1039 61,-32.6033 2.3561,-1.6245 6.542,-4.0206 40.1051,-22.9563 7.4828,-4.2217 14.9772,-8.6529 16.6544,-9.8471 1.6771,-1.1942 3.3811,-2.1713 3.7867,-2.1713 0.8175,0 -0.1889,26.9722 -1.4739,39.5 -0.4513,4.4 -1.5425,15.65 -2.4248,25 -0.8823,9.35 -2.081,20.375 -2.6636,24.5 -0.5827,4.125 -1.6796,12.7306 -2.4375,19.1235 -5.0105,42.26408 -19.99,86.22398 -41.0187,120.37648 -2.7092,4.4 -8.4997,13.85 -12.8678,21 -14.2683,23.3557 -26.4557,38.2881 -54.2752,66.5 -12.2029,12.375 -25.0017,25.5375 -28.4418,29.25 -3.4402,3.7125 -6.6071,6.75 -7.0376,6.75 -0.4305,0 -1.0228,-1.9125 -1.3162,-4.25 z M 396.3165,949.37882 c -1.201,-2.0583 -6.7867,-8.6923 -12.4127,-14.7423 -5.626,-6.05 -18.3684,-19.7533 -28.3164,-30.4518 -23.3285,-25.0883 -28.3934,-30.0994 -51.187,-50.6429 -6.6548,-5.9979 -18.2571,-16.5303 -25.7828,-23.4053 l -13.6832,-12.5 0.4263,-5 c 0.8703,-10.2105 3.7066,-37.2295 4.6188,-44 3.7412,-27.7674 5.3977,-37.9365 7.9358,-48.7154 4.4906,-19.0711 9.0695,-35.3328 10.6848,-37.9465 1.2387,-2.0043 26.3642,13.7243 42.3999,26.5424 19.0638,15.2386 60.5174,54.8798 90.5796,86.6195 10.7297,11.3285 40.3128,44.2643 49.332,54.923 3.5263,4.1673 9.6137,10.952 13.5275,15.077 3.9138,4.125 10.5089,11.775 14.6557,17 4.1467,5.225 10.9252,13.775 15.0632,19 10.5382,13.3064 19.3831,26.8589 18.2613,27.9807 -1.0574,1.0575 -20.2128,5.1694 -34.9193,7.4959 -5.5,0.8701 -11.8,1.9997 -14,2.5103 -2.2,0.5106 -8.275,1.6392 -13.5,2.5079 -5.225,0.8688 -11.525,2.0129 -14,2.5425 -2.475,0.5295 -11.25,1.8489 -19.5,2.9318 -22.0562,2.8951 -28.6674,3.9402 -31.8992,5.0422 -4.7041,1.6042 -5.9818,1.1771 -8.2843,-2.769 z m 188.0369,-44.4923 c -2.7478,-3.4375 -7.1815,-9.175 -9.8528,-12.75 -2.6713,-3.575 -7.1781,-9.2 -10.0151,-12.5 -2.837,-3.3 -6.0012,-7.35 -7.0316,-9 -1.0304,-1.65 -5.7433,-7.275 -10.4731,-12.5 -4.7298,-5.225 -10.6569,-12.2 -13.1713,-15.5 -2.5144,-3.3 -13.2707,-15.45 -23.9029,-27 -10.6321,-11.55 -20.9231,-22.8 -22.8689,-25 -5.5972,-6.3287 -52.3975,-53.1342 -64.5959,-64.6031 -37.9945,-35.7224 -67.91,-61.8261 -87.3867,-76.2521 -3.6053,-2.6704 -7.9051,-6.1241 -9.5551,-7.675 -3.0841,-2.8988 -10.5071,-8.422 -16.25,-12.091 -1.7875,-1.142 -3.25,-2.8709 -3.25,-3.842 0,-0.9711 1.7451,-6.4391 3.8779,-12.1512 2.1328,-5.7121 6.4759,-18.0356 9.6511,-27.3856 5.0084,-14.7478 9.2832,-25.2973 24.7176,-61 1.6644,-3.85 7.2674,-15.55 12.4513,-26 12.2412,-24.6769 14.3306,-28.6929 15.8685,-30.5 0.7021,-0.825 5.5145,-9.375 10.6942,-19 13.117,-24.3743 37.3746,-61.8961 56.2394,-86.9917 10.3717,-13.7973 20.0646,-26.03802 24.1632,-30.51452 1.0103,-1.1034 4.5368,-5.3784 7.8368,-9.5 3.3,-4.1216 6.5007,-7.9438 7.1125,-8.4938 0.6119,-0.55 4.6436,-5.275 8.9594,-10.5 16.0789,-19.4662 67.1571,-68.9501 95.4804,-92.5 3.9689,-3.3 9.549,-8.025 12.4002,-10.5 2.8512,-2.475 7.0877,-5.85 9.4143,-7.5 2.3267,-1.65 5.7325,-4.125 7.5684,-5.5 1.8359,-1.375 5.9227,-4.3 9.0818,-6.5 3.159,-2.2 7.1475,-5.177 8.8633,-6.6156 6.7223,-5.6363 49.9328,-34.4083 61.5393,-40.9765 2.5192,-1.4256 11.7804,-6.7451 20.5804,-11.821 18.7247,-10.8007 71.6633,-37.1855 92.5,-46.1024 12.9446,-5.5396 19.4582,-8.0717 45.5,-17.6878 3.85,-1.4216 9.7767,-3.6449 13.1706,-4.9407 3.3938,-1.2958 6.5438,-2.3575 7,-2.3593 0.4561,0 10.9544,-3.3147 23.3294,-7.3618 21.7784,-7.1223 28.025,-8.8219 59,-16.053 33.088,-7.7244 45.1815,-10.2006 61.5,-12.5925 4.4,-0.6449 10.7,-1.7679 14,-2.4955 3.3,-0.7276 10.275,-1.8288 15.5,-2.447 5.225,-0.6182 11.975,-1.5603 15,-2.0936 6.4274,-1.1331 32.3037,-3.538 53,-4.9257 35.3501,-2.3704 47.306,-2.8448 75.5895,-2.9995 L 1217.679,0 l 0.6061,22.3183 c 0.3333,12.275 0.2132,28.3932 -0.2669,35.8182 -0.4801,7.425 -1.6,25.2 -2.4888,39.5 -0.8887,14.3 -1.9948,31.175 -2.4579,37.5 -1.021,13.9443 -6.2689,51.8514 -9.5524,69 -1.3164,6.875 -3.0983,16.55 -3.9598,21.5 -1.5215,8.742 -4.0767,19.7778 -6.946,30 -0.7719,2.75 -2.6283,10.4 -4.1253,17 -1.4971,6.6 -4.0658,16.5 -5.7083,22 -1.6425,5.5 -3.3638,11.575 -3.8251,13.5 -3.5552,14.8352 -14.4734,47.36552 -23.6619,70.50002 -4.1506,10.45 -9.0927,23.263 -10.9824,28.4733 -1.8898,5.2103 -3.7822,9.9353 -4.2052,10.5 -0.4231,0.5647 -2.3888,4.8517 -4.3683,9.5267 -11.5156,27.1964 -42.429,85.5033 -56.7298,107 -3.1101,4.675 -5.927,9.2412 -6.2599,10.147 -0.3329,0.9059 -2.8002,4.7309 -5.4828,8.5 -2.6826,3.7692 -5.1349,7.535 -5.4495,8.3686 -0.3147,0.8336 -3.9071,6.0086 -7.9832,11.5 -4.0761,5.4914 -11.8715,16.2844 -17.3231,23.9844 -5.4517,7.7 -14.8838,19.9868 -20.9603,27.3041 -6.0765,7.3172 -12.0898,14.7422 -13.3629,16.5 -1.273,1.7577 -5.5903,6.5709 -9.5939,10.6959 -4.0037,4.125 -10.6224,11.325 -14.7084,16 -12.6745,14.5017 -34.0328,35.8602 -50.9994,51 -8.9373,7.975 -19.2048,17.2199 -22.8166,20.5442 -12.0296,11.0719 -20.4582,18.0491 -32.567,26.9593 -6.6,4.8566 -16.3785,12.0904 -21.7299,16.0751 -5.3514,3.9847 -12.4369,8.9722 -15.7455,11.0832 -3.3086,2.111 -10.9982,7.3014 -17.088,11.5341 -22.417,15.5812 -53.3898,33.3366 -102.4366,58.7227 -8.6719,4.4885 -24.9519,12.0814 -25.9039,12.0814 -0.3882,0 -2.5936,0.8502 -4.901,1.8892 -2.3073,1.0391 -7.3451,3.1273 -11.1951,4.6404 -3.85,1.5132 -9.2255,3.8652 -11.9456,5.2268 -2.72,1.3615 -9.6954,4.1626 -15.5008,6.2246 -5.8055,2.062 -12.805,4.6995 -15.5545,5.8612 -7.1144,3.0057 -35.869,12.1578 -38.1984,12.1578 -1.1943,0 -3.8899,-2.4251 -6.9473,-6.25 z m 215.323,-144.0041 c 4.3363,-2.7192 17.1378,-11.3501 27.3236,-18.4219 5.5416,-3.8475 15.8897,-12.061 22.5,-17.8588 3.85,-3.3767 9.0046,-7.5806 11.4546,-9.3419 2.4501,-1.7613 6.7251,-5.3211 9.5,-7.9107 2.775,-2.5896 7.7454,-6.878 11.0454,-9.5299 14.2556,-11.4556 65.361,-63.921 79.5653,-81.6827 2.859,-3.575 6.6779,-8.075 8.4865,-10 5.1296,-5.4598 16.4393,-19.1102 21.9482,-26.4907 2.75,-3.6843 6.35,-8.3008 8,-10.259 3.5593,-4.224 6.7585,-8.7085 17.6532,-24.7451 4.4819,-6.5971 8.9284,-13.1221 9.8812,-14.5 15.2251,-22.0181 33.9786,-54.8563 50.5443,-88.5052 16.159,-32.8228 31.8011,-69.8345 31.2238,-73.8804 -0.3193,-2.2376 -1.0965,-2.7032 -16.8025,-10.0654 -5.225,-2.4492 -13.55,-6.8734 -18.5,-9.8315 -4.95,-2.9581 -14.5707,-8.6454 -21.3793,-12.63832 -6.8086,-3.9929 -16.2586,-10.0425 -21,-13.4435 -4.7414,-3.4011 -9.9707,-7.027 -11.6207,-8.0575 -5.8357,-3.6451 -17.1358,-12.4691 -28,-21.8648 -6.05,-5.2322 -15.275,-13.2023 -20.5,-17.7111 -21.2919,-18.3738 -39.0333,-37.3006 -57.2555,-61.0812 -4.8155,-6.2845 -11.0911,-14.4762 -13.9457,-18.2037 -7.8818,-10.2921 -12.3821,-16.9881 -19.2349,-28.6193 -6.2368,-10.5858 -24.0803,-47.0311 -26.7335,-54.6033 -2.0044,-5.7205 -4.4987,-5.6746 -18.0908,0.3328 -6.1818,2.7322 -14.1646,6.1766 -17.7396,7.6541 -11.1563,4.6109 -43.2245,20.334 -59.0878,28.9708 -3.0733,1.6733 -10.4983,5.6126 -16.5,8.754 -6.0017,3.1414 -16.7622,9.3986 -23.9122,13.9049 -7.15,4.5063 -15.25,9.4913 -18,11.0779 -9.8235,5.6676 -27.9396,17.8392 -39.5607,26.5795 -29.3937,22.1073 -41.2643,31.4694 -51.5073,40.6227 -13.8888,12.4111 -21.2327,18.811 -29.432,25.6481 -4.125,3.4398 -7.7697,6.6663 -8.0994,7.17 -0.3297,0.5037 -7.5296,8.0048 -15.9999,16.6691 -21.3715,21.8608 -34.1187,35.8277 -43.9141,48.11612 -4.6034,5.775 -9.2961,11.4368 -10.4282,12.5817 -6.9896,7.069 -20.5578,24.2788 -27.9237,35.4183 -3.0913,4.675 -8.1184,11.875 -11.1715,16 -10.3127,13.9337 -11.3005,16.3714 -7.5764,18.6972 3.2056,2.0019 28.1992,15.7443 36.1132,19.8564 8.0013,4.1573 19.8213,11.5838 40,25.1318 26.588,17.8512 37.3398,25.2423 37.9087,26.0594 0.3252,0.4671 5.0913,4.0404 10.5913,7.9405 5.5,3.9002 12.475,9.3692 15.5,12.1533 3.025,2.7841 12.25,10.9986 20.5,18.2543 24.0784,21.1765 57.9784,56.0931 78.0764,80.4176 20.3576,24.6387 22.8334,27.8119 28.7594,36.8603 2.1097,3.2212 7.3928,10.5521 11.7404,16.2908 4.3475,5.7387 8.4151,11.425 9.0392,12.6362 0.624,1.2112 1.925,3.1022 2.8912,4.2022 0.9661,1.1 3.438,5.15 5.4931,9 2.0551,3.85 4.9709,8.575 6.4796,10.5 2.6192,3.342 5.9847,8.9839 15.6969,26.3136 2.4084,4.2974 5.4103,9.4724 6.6709,11.5 1.2605,2.0275 3.6994,6.7239 5.4198,10.4364 2.7743,5.9866 3.445,6.7495 5.9306,6.7459 1.5414,0 5.1319,-1.4648 7.9789,-3.25 z M 252,591.25752 c -1.375,-0.9985 -4.975,-3.1009 -8,-4.6719 -3.025,-1.5711 -11.8624,-6.3648 -19.6387,-10.6528 -7.7764,-4.288 -14.4188,-7.7963 -14.7609,-7.7963 -0.3422,0 -2.5297,-0.8599 -4.8613,-1.9109 -2.3315,-1.051 -6.7141,-2.682 -9.7391,-3.6244 -3.025,-0.9424 -9.098,-3.0828 -13.4955,-4.7564 -4.3976,-1.6737 -11.5976,-4.0547 -16,-5.2912 -4.4025,-1.2364 -11.1545,-3.4469 -15.0045,-4.9122 -12.7789,-4.8636 -51.3638,-12.0538 -72.5,-13.5102 -6.875,-0.4737 -19.925,-1.5486 -29,-2.3886 -9.075,-0.84 -19.9875,-1.545 -24.25,-1.5667 -4.2625,-0.022 -7.75,-0.3801 -7.75,-0.7965 0,-0.4164 6.4125,-7.3117 14.25,-15.3228 13.3986,-13.6954 31.4372,-30.0528 45.6773,-41.4201 3.445,-2.75 8.5832,-6.9501 11.4182,-9.3335 2.835,-2.3835 6.7295,-5.2138 8.6545,-6.2896 4.043,-2.2595 17.9242,-11.2781 27.7394,-18.0222 3.7183,-2.5549 14.8606,-8.8052 24.7606,-13.8895 37.1849,-19.097 68.5434,-30.1022 102.5,-35.9724 3.575,-0.618 8.525,-1.5375 11,-2.0433 5.633,-1.1511 25.9576,-3.4135 45.1784,-5.0289 11.1988,-0.9412 17.1252,-0.9655 25,-0.1023 5.6769,0.6222 12.8709,1.3671 15.9866,1.6552 9.415,0.8708 9.443,0.9205 4.4625,7.9001 -2.4148,3.384 -6.6321,10.4218 -9.3719,15.6396 -5.0642,9.6447 -10.5804,19.4663 -13.4718,23.9868 -2.2928,3.5847 -17.7838,32.0395 -17.7838,32.6664 0,0.2886 -0.9442,1.851 -2.0983,3.4718 -2.0416,2.8671 -13.5874,27.2931 -18.6057,39.3618 -1.3722,3.3 -3.3074,7.8 -4.3005,10 -4.9373,10.9376 -10.2877,23.3188 -11.2357,26 -0.5834,1.65 -2.9734,7.95 -5.3113,14 -6.5642,16.9874 -12.1274,31.7683 -12.891,34.25 -0.8312,2.7017 -3.1663,2.8339 -6.5575,0.371 z"
     style="fill:#4684ec" />
</svg>
