<?xml version="1.0" encoding="UTF-8" standalone="no"?>
<svg
   xmlns:dc="http://purl.org/dc/elements/1.1/"
   xmlns:cc="http://creativecommons.org/ns#"
   xmlns:rdf="http://www.w3.org/1999/02/22-rdf-syntax-ns#"
   xmlns:svg="http://www.w3.org/2000/svg"
   xmlns="http://www.w3.org/2000/svg"
   xmlns:sodipodi="http://sodipodi.sourceforge.net/DTD/sodipodi-0.dtd"
   xmlns:inkscape="http://www.inkscape.org/namespaces/inkscape"
   width="596"
   height="328"
   viewBox="0 0 596 328"
   fill="none"
   version="1.1"
   id="svg155"
   sodipodi:docname="teamart.svg"
   inkscape:version="0.92.5 (2060ec1f9f, 2020-04-08)">
  <metadata
     id="metadata159">
    <rdf:RDF>
      <cc:Work
         rdf:about="">
        <dc:format>image/svg+xml</dc:format>
        <dc:type
           rdf:resource="http://purl.org/dc/dcmitype/StillImage" />
      </cc:Work>
    </rdf:RDF>
  </metadata>
  <sodipodi:namedview
     pagecolor="#ffffff"
     bordercolor="#666666"
     borderopacity="1"
     objecttolerance="10"
     gridtolerance="10"
     guidetolerance="10"
     inkscape:pageopacity="0"
     inkscape:pageshadow="2"
     inkscape:window-width="1920"
     inkscape:window-height="1052"
     id="namedview157"
     showgrid="false"
     inkscape:zoom="3.8791946"
     inkscape:cx="495.20588"
     inkscape:cy="86.406574"
     inkscape:window-x="0"
     inkscape:window-y="0"
     inkscape:window-maximized="1"
     inkscape:current-layer="g148" />
  <g
     clip-path="url(#clip0)"
     id="g148">
    <path
       d="M593.487 0.267334H122.488V302.326H593.487V0.267334Z"
       fill="#E6E6E6"
       id="path2" />
    <path
       d="M334.174 40.8289H164.137V215.789H334.174V40.8289Z"
       fill="white"
       id="path4" />
    <path
       d="M567.807 44.2219H397.77V256.721H567.807V44.2219Z"
       fill="white"
       id="path6" />
    <path
       d="M565.541 324.288C582.363 324.288 596 322.337 596 319.93C596 317.524 582.363 315.573 565.541 315.573C548.718 315.573 535.081 317.524 535.081 319.93C535.081 322.337 548.718 324.288 565.541 324.288Z"
       fill="#E6E6E6"
       id="path8"
       style="fill:#e6e6e6;fill-opacity:0.23622048" />
    <path
       d="M261.013 324.385C277.835 324.385 291.472 322.434 291.472 320.028C291.472 317.621 277.835 315.671 261.013 315.671C244.191 315.671 230.553 317.621 230.553 320.028C230.553 322.434 244.191 324.385 261.013 324.385Z"
       fill="#E6E6E6"
       id="path10"
       style="fill:#e6e6e6;fill-opacity:0.23622048" />
    <path
       d="M69.9058 319.022C108.514 319.022 139.812 317.522 139.812 315.671C139.812 313.819 108.514 312.319 69.9058 312.319C31.2979 312.319 0 313.819 0 315.671C0 317.522 31.2979 319.022 69.9058 319.022Z"
       fill="#E6E6E6"
       id="path12"
       style="fill:#e6e6e6;fill-opacity:0.23622048" />
    <path
       d="M593.286 0H122.287V20.0369H593.286V0Z"
       fill="#1FA9E5"
       id="path14" />
    <path
       d="M137.157 13.9577C139.205 13.9577 140.866 12.295 140.866 10.244C140.866 8.19295 139.205 6.53027 137.157 6.53027C135.109 6.53027 133.448 8.19295 133.448 10.244C133.448 12.295 135.109 13.9577 137.157 13.9577Z"
       fill="#E6E6E6"
       id="path16" />
    <path
       d="M151.234 13.9577C153.282 13.9577 154.943 12.295 154.943 10.244C154.943 8.19295 153.282 6.53027 151.234 6.53027C149.186 6.53027 147.525 8.19295 147.525 10.244C147.525 12.295 149.186 13.9577 151.234 13.9577Z"
       fill="#E6E6E6"
       id="path18" />
    <path
       d="M165.311 13.9577C167.359 13.9577 169.02 12.295 169.02 10.244C169.02 8.19295 167.359 6.53027 165.311 6.53027C163.263 6.53027 161.603 8.19295 161.603 10.244C161.603 12.295 163.263 13.9577 165.311 13.9577Z"
       fill="#E6E6E6"
       id="path20" />
    <path
       d="M530.318 101.221H529.288V72.9658C529.288 70.8182 528.866 68.6917 528.045 66.7076C527.225 64.7235 526.022 62.9207 524.505 61.4021C522.989 59.8836 521.188 58.679 519.207 57.8571C517.225 57.0353 515.102 56.6123 512.957 56.6123H453.175C451.031 56.6123 448.907 57.0353 446.926 57.8571C444.944 58.679 443.144 59.8836 441.627 61.4021C440.111 62.9207 438.908 64.7235 438.087 66.7076C437.266 68.6917 436.844 70.8182 436.844 72.9658V227.977C436.844 230.125 437.266 232.252 438.087 234.236C438.908 236.22 440.111 238.023 441.627 239.541C443.144 241.06 444.944 242.264 446.926 243.086C448.907 243.908 451.031 244.331 453.175 244.331H512.957C515.102 244.331 517.225 243.908 519.207 243.086C521.188 242.264 522.989 241.06 524.505 239.541C526.022 238.023 527.225 236.22 528.045 234.236C528.866 232.252 529.288 230.125 529.288 227.977V121.334H530.318V101.221Z"
       fill="#3F3D56"
       id="path22" />
    <path
       d="M512.947 60.8669H505.143C505.502 61.748 505.639 62.7038 505.542 63.6503C505.445 64.5968 505.117 65.5049 504.587 66.2947C504.057 67.0844 503.341 67.7314 502.503 68.1789C501.664 68.6263 500.729 68.8604 499.778 68.8605H465.53C464.58 68.8604 463.644 68.6263 462.806 68.1789C461.967 67.7314 461.251 67.0843 460.721 66.2946C460.191 65.5049 459.864 64.5968 459.767 63.6503C459.67 62.7038 459.807 61.748 460.165 60.8669H452.877C451.275 60.8669 449.689 61.1828 448.21 61.7966C446.73 62.4103 445.386 63.3099 444.253 64.4439C443.121 65.578 442.222 66.9243 441.609 68.406C440.996 69.8877 440.681 71.4757 440.681 73.0795V227.864C440.681 229.467 440.996 231.056 441.609 232.537C442.222 234.019 443.121 235.365 444.253 236.499C445.386 237.633 446.73 238.533 448.21 239.147C449.689 239.76 451.275 240.076 452.877 240.076H512.947C514.548 240.076 516.134 239.76 517.614 239.147C519.093 238.533 520.438 237.633 521.57 236.499C522.703 235.365 523.601 234.019 524.214 232.537C524.827 231.056 525.143 229.467 525.143 227.864V73.0795C525.143 69.8405 523.858 66.7342 521.57 64.4439C519.283 62.1536 516.181 60.8669 512.947 60.8669Z"
       fill="white"
       id="path24" />
    <path
       d="M308.365 151.348H190.18V156.746H308.365V151.348Z"
       fill="#E6E6E6"
       id="path26" />
    <path
       d="M308.365 168.777H190.18V174.175H308.365V168.777Z"
       fill="#1FA9E5"
       id="path28" />
    <path
       d="M308.365 186.206H190.18V191.604H308.365V186.206Z"
       fill="#E6E6E6"
       id="path30" />
    <path
       d="M518.079 163.126H449.084V168.524H518.079V163.126Z"
       fill="#E6E6E6"
       id="path32" />
    <path
       d="M518.079 179.884H449.084V185.282H518.079V179.884Z"
       fill="#E6E6E6"
       id="path34" />
    <path
       d="M518.079 196.643H449.084V202.041H518.079V196.643Z"
       fill="#E6E6E6"
       id="path36" />
    <path
       d="M525.292 280.466V268.952H513.793V280.466H525.292Z"
       fill="#3F3D56"
       id="path38" />
    <path
       d="M506.766 280.466V268.952H495.267V280.466H506.766Z"
       fill="#1FA9E5"
       id="path40" />
    <path
       d="M488.24 280.466V268.952H476.74V280.466H488.24Z"
       fill="#3F3D56"
       id="path42" />
    <path
       d="M469.713 280.466V268.952H458.214V280.466H469.713Z"
       fill="#3F3D56"
       id="path44" />
    <path
       d="M451.187 280.466V268.952H439.688V280.466H451.187Z"
       fill="#3F3D56"
       id="path46" />
    <path
       d="M234.038 184.743L233.542 185.736L232.054 178.284C232.054 178.284 230.069 170.335 234.038 170.335C238.007 170.335 237.015 178.284 237.015 178.284V183.749L234.038 184.743Z"
       fill="#A0616A"
       id="path48" />
    <path
       d="M299.135 183.725L299.631 184.719L301.12 177.266C301.12 177.266 303.104 169.317 299.135 169.317C295.166 169.317 296.158 177.266 296.158 177.266V182.731L299.135 183.725Z"
       fill="#A0616A"
       id="path50" />
    <path
       d="M255.868 240.614L249.915 277.378L252.891 313.149L259.837 310.168L258.845 283.34L265.791 261.976L267.28 287.314L264.303 313.645L273.234 314.639L279.684 260.486L279.187 242.104L255.868 240.614Z"
       fill="#2F2E41"
       id="path52" />
    <path
       d="M255.869 308.677L252.396 314.142V326.354C252.396 326.705 252.521 327.046 252.748 327.313C252.976 327.581 253.291 327.759 253.638 327.815C255.34 328.095 258.304 328.294 259.342 326.563C260.83 324.079 259.838 318.614 259.838 318.614C259.838 318.614 261.822 314.639 260.83 311.658C259.838 308.677 258.845 308.181 258.845 308.181L255.869 308.677Z"
       fill="#2F2E41"
       id="path54" />
    <path
       d="M270.753 313.646L271.745 315.136C271.745 315.136 273.234 316.627 272.241 317.62C271.513 318.393 270.849 319.223 270.257 320.104C270.257 320.104 264.799 321.595 264.799 319.608V313.149L270.753 313.646Z"
       fill="#2F2E41"
       id="path56" />
    <path
       d="M268.965 200.178C272.597 200.178 275.542 197.23 275.542 193.593C275.542 189.955 272.597 187.007 268.965 187.007C265.333 187.007 262.388 189.955 262.388 193.593C262.388 197.23 265.333 200.178 268.965 200.178Z"
       fill="#A0616A"
       id="path58" />
    <path
       d="M264.551 195.652L264.055 205.092L272.985 205.588L272.489 196.149L264.551 195.652Z"
       fill="#A0616A"
       id="path60" />
    <path
       d="M274.226 205.837L272.818 202.391C272.818 202.391 266.288 199.875 264.303 202.359L263.311 205.34L255.372 203.353L250.907 213.289L254.876 241.607C254.876 241.607 265.295 255.021 279.187 242.104L283.156 215.276L280.18 204.843L274.226 205.837Z"
       fill="#FD0101"
       id="path62" />
    <path
       d="M279.188 206.831L280.18 204.843L290.103 198.881L296.158 180.931L300.844 182.942L295.56 204.346L281.172 217.76L279.188 206.831Z"
       fill="#FD0101"
       id="path64" />
    <path
       d="M256.364 204.346L255.372 203.353L244.953 196.894L237.511 181.99L231.558 183.976L238.007 202.359L253.884 215.276L256.364 204.346Z"
       fill="#FD0101"
       id="path66" />
    <path
       d="M273.846 183.507L274.921 182.969L273.308 182.431V181.892C273.308 181.892 265.244 178.662 264.168 184.046C262.781 185.913 262.031 188.179 262.031 190.506C262.031 192.834 262.781 195.1 264.168 196.967V198.582L272.771 199.659L273.846 196.429C273.846 196.429 279.223 186.738 273.846 183.507Z"
       fill="#2F2E41"
       id="path68" />
    <path
       d="M77.0452 241.197L75.1337 242.154C75.1337 242.154 67.4876 245.663 69.7177 247.577C71.9479 249.491 78.001 245.663 78.001 245.663L79.2754 244.068L77.0452 241.197Z"
       fill="#FFB8B8"
       id="path70" />
    <path
       d="M132.972 240.72L127.064 280.436L118.143 308.191L113.364 305.958L117.824 267.995L105.081 257.148L106.037 241.197L132.972 240.72Z"
       fill="#2F2E41"
       id="path72" />
    <path
       d="M112.727 306.915C112.727 306.915 118.143 304.044 118.461 308.191L117.824 312.338C117.824 312.338 119.736 319.676 113.364 318.08C106.992 316.485 111.453 311.7 111.453 311.7L112.727 306.915Z"
       fill="#2F2E41"
       id="path74" />
    <path
       d="M109.222 253.639L105.081 257.148C105.081 257.148 105.081 278.841 107.948 282.031C110.815 285.222 128.975 301.492 129.612 302.13C130.249 302.768 133.116 295.749 133.116 295.749L115.913 275.651L117.187 263.209L109.222 253.639Z"
       fill="#2F2E41"
       id="path76" />
    <path
       d="M131.205 294.792C131.205 294.792 136.302 293.835 136.302 297.344C136.366 300.119 136.578 302.887 136.939 305.639C136.939 305.639 138.214 316.804 134.072 315.209C129.931 313.614 128.338 302.449 128.338 302.449C128.723 301.521 129.392 300.739 130.249 300.215C131.524 299.577 131.205 294.792 131.205 294.792Z"
       fill="#2F2E41"
       id="path78" />
    <path
       d="M115.276 193.344L116.231 205.148L113.683 209.614L106.674 202.914L106.037 193.982L115.276 193.344Z"
       fill="#FFB8B8"
       id="path80" />
    <path
       d="M109.541 197.172C113.764 197.172 117.187 193.744 117.187 189.516C117.187 185.287 113.764 181.859 109.541 181.859C105.318 181.859 101.895 185.287 101.895 189.516C101.895 193.744 105.318 197.172 109.541 197.172Z"
       fill="#FFB8B8"
       id="path82" />
    <path
       d="M112.727 204.829L115.913 195.577L121.647 201.958L132.161 242.473L124.196 247.258L120.692 242.154L120.055 248.853L104.443 245.663L103.169 202.914L106.353 198.424L112.727 204.829Z"
       fill="#D0CDE1"
       id="path84" />
    <path
       d="M108.266 250.129L106.355 198.448L102.213 201.639L94.5671 206.743L99.6649 224.927L101.257 244.068L108.266 250.129Z"
       fill="#2F2E41"
       id="path86" />
    <path
       d="M96.7978 207.062L94.5672 206.743L88.1955 225.565L75.4521 241.516L80.2313 246.62L94.8859 232.264L100.302 220.461L96.7978 207.062Z"
       fill="#2F2E41"
       id="path88" />
    <path
       d="M131.59 241.489L131.155 243.584C131.155 243.584 129.166 251.768 132.049 251.202C134.931 250.635 135.682 243.506 135.682 243.506L135.222 241.516L131.59 241.489Z"
       fill="#FFB8B8"
       id="path90" />
    <path
       d="M115.415 195.059L131.205 201.32L129.294 220.461L133.117 241.516L129.294 245.663L115.158 197.771L115.415 195.059Z"
       fill="#2F2E41"
       id="path92" />
    <path
       d="M109.941 176.657L112.186 175.533V176.657L113.682 175.908V177.78C113.682 177.78 119.293 181.901 118.171 186.77C117.049 191.639 117.049 192.014 117.049 192.014C117.049 192.014 115.63 182.754 110.019 184.252C104.408 185.75 103.956 186.021 102.46 190.141L102.054 191.908C102.054 191.908 95.7272 177.406 109.941 176.657Z"
       fill="#2F2E41"
       id="path94" />
    <path
       d="M128.975 201.32H131.523L135.665 223.651V243.111L130.568 242.154L126.426 212.804L128.975 201.32Z"
       fill="#2F2E41"
       id="path96" />
    <path
       d="M96.3024 248.545H2.36646V313.911H96.3024V248.545Z"
       fill="#1FA9E5"
       id="path98" />
    <path
       d="M49.3345 261.3C45.3984 261.3 41.5506 262.468 38.2778 264.658C35.005 266.848 32.4541 269.96 30.9478 273.602C29.4415 277.243 29.0474 281.25 29.8153 285.116C30.5832 288.982 32.4786 292.533 35.2619 295.32C38.0452 298.107 41.5914 300.005 45.4519 300.774C49.3125 301.543 53.314 301.148 56.9506 299.64C60.5871 298.132 63.6953 295.577 65.8822 292.3C68.069 289.023 69.2362 285.17 69.2362 281.228C69.2208 275.948 67.119 270.888 63.3901 267.154C59.6611 263.42 54.608 261.315 49.3345 261.3ZM49.3345 267.278C50.5154 267.278 51.6697 267.629 52.6516 268.286C53.6334 268.943 54.3987 269.876 54.8506 270.969C55.3025 272.061 55.4207 273.263 55.1903 274.423C54.9599 275.583 54.3913 276.648 53.5563 277.484C52.7213 278.32 51.6575 278.89 50.4993 279.121C49.3412 279.351 48.1407 279.233 47.0497 278.78C45.9588 278.328 45.0263 277.562 44.3702 276.578C43.7142 275.595 43.364 274.439 43.364 273.257C43.3693 271.673 44 270.155 45.1186 269.035C46.2371 267.915 47.7527 267.283 49.3345 267.278ZM49.3345 296.06C46.976 296.049 44.6556 295.462 42.5748 294.35C40.4939 293.238 38.7154 291.635 37.3935 289.679C37.4892 285.693 45.3542 283.499 49.3345 283.499C53.3149 283.499 61.1799 285.693 61.2755 289.679C59.9521 291.633 58.1733 293.236 56.0928 294.348C54.0123 295.459 51.6927 296.047 49.3345 296.06Z"
       fill="white"
       id="path100" />
    <path
       d="M308.066 60.9392H190.245V128.644H308.066V60.9392Z"
       fill="#E6E6E6"
       id="path102" />
    <path
       d="M541.039 195.227L541.585 191.701C541.585 191.701 544.767 184.458 542.252 184.067C539.737 183.677 537.639 190.573 537.639 190.573L538.559 197.937L541.039 195.227Z"
       fill="#FFB8B8"
       id="path104" />
    <path
       d="M566.791 215.215L544.311 210.694L541.699 194.298L535.082 193.786L535.405 214.984L554.937 225.239L566.791 215.215Z"
       fill="#575A89"
       id="path106" />
    <path
       opacity="0.2"
       d="M566.791 215.215L544.311 210.694L541.699 194.298L535.082 193.786L535.405 214.984L554.937 225.239L566.791 215.215Z"
       fill="black"
       id="path108" />
    <path
       d="M505.634 190.891H574.628V185.493H505.634V190.891Z"
       fill="#1FA9E5"
       id="path110" />
    <path
       d="M536.647 194.018L536.652 190.45C536.652 190.45 538.698 182.807 536.152 182.804C533.607 182.801 532.58 189.936 532.58 189.936L534.607 197.074L536.647 194.018Z"
       fill="#FFB8B8"
       id="path112" />
    <path
       d="M565.91 204.238L568.994 203.485C570.171 203.486 571.334 203.226 572.398 202.722C573.462 202.218 574.401 201.484 575.147 200.572C575.893 199.66 576.427 198.594 576.71 197.45C576.994 196.306 577.021 195.114 576.787 193.958C576.789 192.594 576.522 191.242 576.002 189.98C575.482 188.719 574.719 187.572 573.757 186.606C572.794 185.639 571.651 184.872 570.392 184.348C569.134 183.825 567.784 183.554 566.421 183.552C565.058 183.551 563.708 183.818 562.449 184.338C561.189 184.859 560.043 185.623 559.078 186.587C558.113 187.551 557.348 188.696 556.824 189.956C556.301 191.216 556.031 192.567 556.029 193.932C555.63 195.323 555.603 196.793 555.95 198.197C556.297 199.602 557.006 200.89 558.007 201.933C559.007 202.977 560.264 203.739 561.651 204.143C563.038 204.548 564.506 204.58 565.91 204.238Z"
       fill="#2F2E41"
       id="path114" />
    <path
       d="M547.769 255.709L550.28 283.237L554.826 310.258L562.462 310.267L561.477 283.761L557.445 251.643L547.769 255.709Z"
       fill="#2F2E41"
       id="path116" />
    <path
       d="M555.847 308.73L550.753 311.782C550.753 311.782 542.607 312.791 544.131 315.342C545.655 317.892 563.473 316.386 563.474 315.366C563.475 314.347 562.973 308.739 561.955 308.738L555.847 308.73Z"
       fill="#2F2E41"
       id="path118" />
    <path
       d="M570.307 253.331C570.307 253.331 570.164 257.266 566.593 263.378L567.079 282.239L585.374 305.709L578.75 311.308L556.384 285.793L550.823 255.203L557.959 248.076L570.307 253.331Z"
       fill="#2F2E41"
       id="path120" />
    <path
       d="M583.847 305.707C583.847 305.707 589.954 306.734 588.933 309.282C587.912 311.829 585.352 323.549 578.736 322.012C578.736 322.012 575.682 322.008 576.703 319.97C577.316 318.745 577.998 317.554 578.743 316.405L578.752 309.778L583.847 305.707Z"
       fill="#2F2E41"
       id="path122" />
    <path
       d="M562.604 204.755C566.821 204.755 570.24 201.332 570.24 197.109C570.24 192.887 566.821 189.464 562.604 189.464C558.387 189.464 554.969 192.887 554.969 197.109C554.969 201.332 558.387 204.755 562.604 204.755Z"
       fill="#FFB8B8"
       id="path124" />
    <path
       d="M566.161 202.211L566.15 210.876L558.006 210.866L559.035 202.202L566.161 202.211Z"
       fill="#FFB8B8"
       id="path126" />
    <path
       d="M555.973 207.805L558.441 207.198L566.154 207.818C566.154 207.818 570.221 211.901 569.711 212.92C569.201 213.939 566.624 238.912 566.624 238.912L571.183 256.758L554.893 257.757L546.75 256.727L548.317 224.617C548.317 224.617 544.765 215.947 549.349 213.404C551.938 212.044 554.199 210.133 555.973 207.805Z"
       fill="#575A89"
       id="path128" />
    <path
       d="M565.133 209.856L542.228 208.807L537.158 193L530.54 193.501L534.077 214.404L554.938 221.567L565.133 209.856Z"
       fill="#575A89"
       id="path130" />
    <path
       d="M577.343 191.476C580.064 191.476 582.27 189.268 582.27 186.543C582.27 183.819 580.064 181.61 577.343 181.61C574.623 181.61 572.417 183.819 572.417 186.543C572.417 189.268 574.623 191.476 577.343 191.476Z"
       fill="#2F2E41"
       id="path132" />
    <path
       d="M572.798 183.892C572.799 183.162 572.961 182.441 573.273 181.782C573.585 181.123 574.04 180.541 574.604 180.079C575.168 179.617 575.827 179.286 576.535 179.11C577.242 178.934 577.979 178.918 578.694 179.062C578.063 178.763 577.377 178.603 576.68 178.59C575.983 178.577 575.291 178.713 574.65 178.988C574.01 179.263 573.434 179.671 572.963 180.185C572.491 180.699 572.134 181.308 571.915 181.971C571.696 182.633 571.62 183.335 571.692 184.029C571.764 184.724 571.983 185.395 572.333 185.998C572.684 186.602 573.158 187.124 573.725 187.53C574.292 187.936 574.939 188.217 575.623 188.354C574.777 187.956 574.063 187.324 573.563 186.534C573.062 185.744 572.797 184.827 572.798 183.892Z"
       fill="#2F2E41"
       id="path134" />
    <path
       d="M568.572 186.689L561.93 185.465L556.823 188.67C555.567 189.458 554.564 190.59 553.931 191.932C553.298 193.274 553.063 194.77 553.254 196.241L558.369 194.943L559.515 192.067L560.879 194.306L566.413 203.995L572.017 200.944L575.587 195.342L568.572 186.689Z"
       fill="#2F2E41"
       id="path136" />
    <path
       d="M190.578 60.3579L189.912 61.5205L307.733 129.225L308.399 128.063L190.578 60.3579Z"
       fill="white"
       id="path138" />
    <path
       d="M307.735 60.3625L189.909 128.058L190.575 129.221L308.401 61.5252L307.735 60.3625Z"
       fill="white"
       id="path140" />
    <path
       d="M502.077 93.1714H463.747V131.554H502.077V93.1714Z"
       fill="#1FA9E5"
       id="path142" />
    <path
       d="M464.518 92.6419L463.571 93.5898L501.729 131.8L502.676 130.852L464.518 92.6419Z"
       fill="white"
       id="path144" />
    <path
       d="M501.729 92.6419L463.571 130.852L464.518 131.799L502.676 93.5898L501.729 92.6419Z"
       fill="white"
       id="path146" />
  </g>
  <defs
     id="defs153">
    <clipPath
       id="clip0">
      <rect
         width="596"
         height="328"
         fill="white"
         id="rect150" />
    </clipPath>
  </defs>
</svg>
